<svg width="16" height="16" viewBox="0 0 16 16" fill="none" xmlns="http://www.w3.org/2000/svg">
<path d="M1.625 12.875V4.625H13.625V7.0925C14.165 7.2575 14.675 7.4975 15.125 7.82V4.625C15.125 3.7925 14.4575 3.125 13.625 3.125H10.625V1.625C10.625 0.7925 9.9575 0.125 9.125 0.125H6.125C5.2925 0.125 4.625 0.7925 4.625 1.625V3.125H1.625C0.7925 3.125 0.1325 3.7925 0.1325 4.625L0.125 12.875C0.125 13.7075 0.7925 14.375 1.625 14.375H7.385C7.16 13.91 7.01 13.4075 6.935 12.875H1.625ZM6.125 1.625H9.125V3.125H6.125V1.625Z" fill="#8E9397"/>
<path d="M12.125 8.375C10.055 8.375 8.375 10.055 8.375 12.125C8.375 14.195 10.055 15.875 12.125 15.875C14.195 15.875 15.875 14.195 15.875 12.125C15.875 10.055 14.195 8.375 12.125 8.375ZM13.3625 13.8875L11.75 12.275V9.875H12.5V11.9675L13.8875 13.355L13.3625 13.8875Z" fill="#8E9397"/>
</svg>
