<svg width="48" height="48" viewBox="0 0 48 48" fill="none" xmlns="http://www.w3.org/2000/svg">
<path d="M21.667 30.9993H26.3337V35.666H21.667V30.9993ZM21.667 12.3327H26.3337V26.3327H21.667V12.3327ZM23.977 0.666016C11.097 0.666016 0.666992 11.1193 0.666992 23.9993C0.666992 36.8793 11.097 47.3327 23.977 47.3327C36.8803 47.3327 47.3337 36.8793 47.3337 23.9993C47.3337 11.1193 36.8803 0.666016 23.977 0.666016ZM24.0003 42.666C13.687 42.666 5.33366 34.3127 5.33366 23.9993C5.33366 13.686 13.687 5.33268 24.0003 5.33268C34.3137 5.33268 42.667 13.686 42.667 23.9993C42.667 34.3127 34.3137 42.666 24.0003 42.666Z" fill="#CFD0D2"/>
</svg>
