<svg width="60" height="74" viewBox="0 0 60 74" fill="none" xmlns="http://www.w3.org/2000/svg">
<path opacity="0.1" fill-rule="evenodd" clip-rule="evenodd" d="M43.75 2.78257V5.50525L43.3333 5.59075C43.1042 5.63771 34.5349 5.68159 24.2904 5.68823C9.78905 5.69772 5.64369 5.73235 5.57179 5.84489C5.52095 5.92434 5.49214 15.2712 5.50762 26.6155L5.53571 47.2416L6.07143 47.553C6.36607 47.7243 7.33036 48.2418 8.21429 48.703C9.09821 49.1642 10.1696 49.727 10.5952 49.9535C11.0208 50.1801 11.9583 50.6745 12.6786 51.0521C13.3988 51.4298 14.3095 51.9108 14.7024 52.1212C15.0952 52.3315 15.9792 52.7972 16.6667 53.1559C18.421 54.0715 20.3707 55.0939 23.2738 56.6205C24.6488 57.3435 25.9185 57.9986 26.0951 58.0761C26.2719 58.1537 26.6336 58.3536 26.8987 58.5204L27.381 58.8236V62.0139V65.2041L27.9317 65.5108C28.2345 65.6795 28.5024 65.8174 28.5269 65.8174C28.5514 65.8174 28.5714 64.0117 28.5714 61.8048V57.7922L27.4107 57.1796C26.7723 56.8427 25.5268 56.1763 24.6429 55.6988L23.0357 54.8306L23.0314 49.3249C23.0292 46.2967 23.0476 43.6791 23.0725 43.5079C23.116 43.2098 23.3174 43.1307 27.8387 41.6366C30.4351 40.7787 32.6269 40.0783 32.7093 40.0802C32.8282 40.0829 32.8529 41.4467 32.8283 46.6949L32.7976 53.3063L31.8155 53.5398L30.8333 53.7734V59.9832C30.8333 63.3985 30.8735 66.1723 30.9226 66.1472C30.9717 66.1219 31.2037 66.0139 31.4381 65.9069C31.6724 65.7999 31.9263 65.6379 32.0023 65.5468C32.1012 65.428 32.149 63.9224 32.1713 60.233L32.2024 55.0851L35.3571 54.2891C37.0923 53.8514 38.6325 53.4911 38.7798 53.4886L39.0476 53.4841V58.4776C39.0476 62.9822 39.0661 63.464 39.236 63.399C39.3395 63.3594 39.5836 63.327 39.7782 63.327C40.0946 63.327 40.1642 63.2549 40.4344 62.6451C40.6006 62.27 40.86 61.6964 41.0108 61.3703C41.1618 61.0442 41.3948 60.5238 41.5288 60.2141C41.6627 59.9043 41.8501 59.6508 41.9451 59.6508C42.0402 59.6508 42.887 60.0846 43.8269 60.6149C44.7668 61.1451 45.8571 61.7527 46.25 61.9651C46.6429 62.1775 47.3043 62.5441 47.7198 62.7798C48.1352 63.0156 48.527 63.2084 48.5902 63.2084C49.1143 63.2084 50.9695 62.4327 51.7857 61.8723C52.9957 61.0416 54.1496 59.3308 54.4051 57.9887C54.4811 57.5894 54.5238 50.0568 54.5238 37.0435V16.7216H57.2619H60V37.3941C60 57.4624 59.9932 58.0983 59.7671 59.152C59.2479 61.5726 58.1994 63.4885 56.4406 65.2307C54.6342 67.0202 52.7544 68.0495 50.1342 68.6839C49.2154 68.9064 48.5802 68.9424 44.1071 69.0256C39.7457 69.1065 38.9855 69.1483 38.1548 69.3516C36.7874 69.6861 36.1582 69.9122 34.881 70.5278C33.3827 71.25 32.2735 72.0058 31.1058 73.0999C30.5776 73.5949 30.0799 74 30 74C29.9201 74 29.4343 73.6062 28.9206 73.1247C27.0455 71.3674 24.7158 70.1104 22.0305 69.4068C20.936 69.1199 20.7035 69.1054 15.8929 69.0202C10.7517 68.9294 10.4048 68.8978 8.69048 68.3656C6.45738 67.6725 4.98095 66.7553 3.28286 65.0066C2.135 63.8246 0.975714 61.8987 0.526904 60.4287C-0.0169054 58.6474 0.000357986 59.6777 0.00011989 28.9656L0 0L21.875 0.0298842L43.75 0.0598879V2.78257ZM60 7.11818V14.2358L57.2917 14.2039L54.5833 14.172V11.9483C54.5833 10.7254 54.5556 9.72476 54.5217 9.72476C54.4877 9.72487 54.2156 9.92505 53.9169 10.1696C53.6183 10.4142 53.141 10.8011 52.8562 11.0294C52.5714 11.2576 51.9811 11.7379 51.5443 12.0967C51.1074 12.4554 50.5442 12.909 50.2926 13.1047C50.0411 13.3003 49.4773 13.7539 49.0398 14.1127C48.6024 14.4714 47.7957 15.1236 47.2471 15.562C46.6987 16.0005 45.2857 17.1363 44.1071 18.0862C42.9286 19.0361 41.5187 20.1716 40.9742 20.6095C40.4296 21.0475 39.9207 21.4617 39.8432 21.53C39.7061 21.6509 36.9462 23.8738 36.0309 24.6005C35.7796 24.8002 35.1636 25.3004 34.6619 25.7122C34.1604 26.1239 33.6676 26.5242 33.5669 26.6016C33.4661 26.679 32.9571 27.0892 32.436 27.5132C31.9146 27.9371 31.3894 28.3641 31.2688 28.4619C31.1481 28.5597 30.8802 28.7857 30.6736 28.964C30.4668 29.1424 30.1989 29.2891 30.0782 29.2901C29.9576 29.2912 29.2108 28.7718 28.4188 28.1358C27.6268 27.4998 25.9576 26.1657 24.7096 25.1709C23.4615 24.1762 22.3333 23.2712 22.2024 23.1596C22.0714 23.048 20.8661 22.0805 19.5238 21.0097C18.1815 19.9388 16.938 18.9281 16.7602 18.7635C16.5249 18.5455 16.3956 18.4976 16.284 18.5869C16.1999 18.6543 14.7649 19.7983 13.0952 21.1291C11.4256 22.4599 9.64917 23.8803 9.14762 24.2858C8.64595 24.6911 8.17726 25.0228 8.10595 25.0228C8.01524 25.0228 7.97643 23.9617 7.97702 21.4948L7.97786 17.9668L8.64119 17.4331C9.00607 17.1396 9.80393 16.4993 10.4142 16.0101C11.0244 15.5209 12.0144 14.7204 12.6144 14.2312C13.2143 13.7421 13.8589 13.2323 14.047 13.0984C14.38 12.8613 14.9826 12.3719 15.7521 11.7131C15.9605 11.5348 16.2381 11.3895 16.369 11.3902C16.5 11.3909 17.0089 11.716 17.5 12.1128C19.3225 13.5849 23.1932 16.6917 23.7593 17.1367C24.0082 17.3323 24.4058 17.6525 24.6429 17.8482C24.8799 18.0439 25.2812 18.3641 25.5345 18.5597C25.788 18.7554 26.3473 19.2106 26.7774 19.5713C27.2076 19.9319 27.6999 20.3322 27.8714 20.4607C28.0431 20.5891 28.552 20.9912 29.0024 21.3539C29.4529 21.7168 29.8833 22.0503 29.9589 22.0952C30.0345 22.1401 30.3079 22.0033 30.5663 21.7913C30.8248 21.5794 31.2182 21.2611 31.4407 21.084C31.6632 20.907 32.381 20.329 33.0357 19.7996C33.6905 19.2702 34.5093 18.6145 34.8552 18.3426C35.2011 18.0707 35.9059 17.5013 36.4215 17.0774C37.6374 16.0776 39.963 14.1915 40.4039 13.8476C40.5935 13.6999 40.9444 13.4189 41.184 13.2232C41.7182 12.7871 42.4863 12.1671 43.1398 11.6446C43.4099 11.4286 43.7381 11.1621 43.869 11.0522C44 10.9423 44.8081 10.2918 45.6648 9.60676C46.5214 8.92167 47.9143 7.80504 48.76 7.12541C49.6057 6.44577 50.3199 5.87216 50.3473 5.85058C50.5194 5.71468 50.044 5.67412 48.4217 5.68633C47.412 5.69392 46.497 5.66605 46.3882 5.62443C46.2117 5.55707 46.1905 5.25088 46.1905 2.77474V0.000593523H53.0952H60V7.11818ZM30.3167 30.8983C30.5468 30.9459 30.5825 31.0554 30.6568 31.9437C30.7024 32.4895 30.7795 33.0002 30.8282 33.0786C30.8768 33.157 31.3667 33.3201 31.9167 33.4411C32.8875 33.6547 34.4869 34.1689 35.3783 34.5539L35.8161 34.7431L36.42 34.0232C36.752 33.6273 37.0238 33.2546 37.0238 33.1951C37.0238 32.8968 37.6367 33.1287 38.7669 33.8546C38.9727 33.9867 39.5733 34.3617 40.1016 34.6878C40.6299 35.0139 41.089 35.3468 41.122 35.4277C41.155 35.5084 40.9779 36.0026 40.7285 36.5257L40.2749 37.4769L41.5043 38.682C42.1805 39.3448 42.9611 40.1982 43.2389 40.5784C43.5169 40.9584 43.7926 41.2695 43.8518 41.2695C43.9108 41.2695 44.3765 41.1287 44.8867 40.9567C45.3968 40.7846 45.8987 40.6762 46.0019 40.7157C46.1052 40.7552 46.3682 41.1494 46.5863 41.5917C46.8044 42.0341 47.2332 42.8541 47.539 43.4138C47.845 43.9735 48.0952 44.4868 48.0952 44.5542C48.0952 44.6216 47.8407 44.8695 47.5298 45.105C47.2188 45.3405 46.8995 45.5878 46.8205 45.6545C46.7414 45.7213 46.6241 45.7759 46.5596 45.7759C46.3226 45.7759 46.2968 46.0323 46.4786 46.5789C46.8205 47.6066 47.0443 48.5511 47.244 49.8079L47.442 51.0531L48.5875 51.2753L49.733 51.4975L49.684 53.0541C49.6571 53.9102 49.6062 54.9409 49.5707 55.3444L49.5064 56.0782L48.8306 56.1492C47.0981 56.3311 47.143 56.3173 47.1414 56.6636C47.14 56.9531 46.8039 58.2391 46.405 59.4814C46.3198 59.7469 46.1682 60.0861 46.0682 60.2352L45.8864 60.5063L44.26 59.5953C43.3654 59.0942 42.5795 58.6196 42.5137 58.5406C42.4313 58.4417 42.4852 58.0841 42.6864 57.3947C43.5312 54.5 43.545 51.4302 42.7258 48.5627C42.5955 48.1061 42.4451 47.6259 42.3918 47.4954C41.3893 45.0445 40.1714 43.2032 38.4613 41.5527C36.3456 39.5108 34.097 38.264 31.1371 37.4913C30.0277 37.2017 29.7582 37.1789 27.4405 37.1785C25.1099 37.1782 24.8558 37.1999 23.6905 37.4991C21.433 38.0785 19.3771 39.0607 17.6264 40.3958C17.2063 40.7164 15.3569 42.4851 15.3581 42.5653C15.3587 42.6027 15.6132 42.7713 15.9236 42.94C17.809 43.9647 21.3752 46.0445 21.4546 46.1657C21.5606 46.3275 21.5638 49.7079 21.4604 52.2686C21.4071 53.5891 21.3564 53.9585 21.2288 53.9585C21.069 53.9585 19.049 52.9367 16.5476 51.5907C15.8601 51.2209 15.2038 50.8835 15.0893 50.8412C14.8964 50.7698 14.881 50.4612 14.881 46.6816C14.881 42.9029 14.8655 42.5934 14.6726 42.5201C14.124 42.3114 11.5476 40.7184 11.5476 40.5878C11.5476 40.3278 14.3656 37.5791 15.3274 36.9012C15.7757 36.5851 15.7958 36.4199 15.4725 35.7102C15.3425 35.4246 15.2057 34.9977 15.1686 34.7615L15.1012 34.332L16.0923 33.8265C16.6374 33.5484 17.4802 33.1081 17.9655 32.8481C18.4506 32.5881 18.9176 32.3753 19.0031 32.3753C19.1386 32.3753 20.2794 33.7535 20.3798 34.0383C20.4 34.0959 20.7381 34.0346 21.131 33.9022C21.9706 33.6189 24.4269 33.0936 24.9405 33.0875C25.4836 33.0811 25.5668 32.9734 25.7219 32.077C25.9726 30.6278 25.7489 30.7502 28.0545 30.8009C29.1573 30.8253 30.1752 30.869 30.3167 30.8983ZM5.52952 52.8484C5.40214 54.0336 5.5481 57.5879 5.75405 58.3148C6.21822 59.9535 7.61393 61.6167 9.18322 62.4014C10.519 63.0696 10.597 63.0737 11.4595 62.5246C12.9519 61.5745 15.6645 59.9152 16.0265 59.7309C16.2311 59.6268 16.4319 59.5751 16.473 59.616C16.514 59.6568 16.5476 60.4818 16.5476 61.4494V63.2084H17.1429H17.7381V60.2437C17.7381 58.6131 17.7051 57.279 17.6648 57.279C17.6244 57.279 17.0313 57.6259 16.3469 58.0498C14.6743 59.0858 14.6429 59.0816 14.6429 57.8215V56.8225L13.125 56.0249C11.5504 55.1974 10.4915 54.6384 9.01786 53.8563C8.5431 53.6043 7.58321 53.0968 6.88464 52.7285L5.61441 52.0588L5.52952 52.8484ZM37.9762 63.39C37.9762 63.4858 38.0565 63.5642 38.1548 63.5642C38.253 63.5642 38.3333 63.5165 38.3333 63.4583C38.3333 63.4001 38.253 63.3217 38.1548 63.2841C38.046 63.2426 37.9762 63.284 37.9762 63.39Z" fill="#3A6CAB"/>
</svg>
