<svg width="236" height="36" viewBox="0 0 236 36" fill="none" xmlns="http://www.w3.org/2000/svg">
<rect width="236" height="36" fill="white"/>
<path d="M1.44 18V6.64H2.88V16L9.456 6.64H10.8V18H9.36V8.816L2.864 18H1.44ZM13.3784 18V9.648H14.7864V13.104H19.1384V9.648H20.5464V18H19.1384V14.352H14.7864V18H13.3784ZM22.8243 18V9.648H27.1443C27.6456 9.648 28.0616 9.74933 28.3923 9.952C28.7229 10.144 28.9683 10.3947 29.1283 10.704C29.2989 11.0133 29.3843 11.344 29.3843 11.696C29.3843 12.144 29.2776 12.5493 29.0643 12.912C28.8509 13.264 28.5416 13.5307 28.1363 13.712C28.6163 13.8507 29.0056 14.1013 29.3043 14.464C29.6029 14.816 29.7523 15.2533 29.7523 15.776C29.7523 16.2453 29.6403 16.6453 29.4163 16.976C29.1923 17.3067 28.8776 17.5627 28.4723 17.744C28.0669 17.9147 27.5976 18 27.0643 18H22.8243ZM24.1683 17.008H27.0323C27.2883 17.008 27.5176 16.944 27.7203 16.816C27.9336 16.688 28.0989 16.5173 28.2163 16.304C28.3336 16.0907 28.3923 15.8667 28.3923 15.632C28.3923 15.376 28.3336 15.1467 28.2163 14.944C28.1096 14.7307 27.9549 14.5653 27.7523 14.448C27.5603 14.32 27.3363 14.256 27.0803 14.256H24.1683V17.008ZM24.1683 13.328H26.7763C27.0323 13.328 27.2563 13.264 27.4483 13.136C27.6403 12.9973 27.7896 12.8213 27.8963 12.608C28.0029 12.3947 28.0563 12.1707 28.0563 11.936C28.0563 11.584 27.9389 11.28 27.7043 11.024C27.4803 10.768 27.1869 10.64 26.8243 10.64H24.1683V13.328ZM35.2634 18.16C34.634 18.16 34.058 18.048 33.5354 17.824C33.0234 17.5893 32.5754 17.2747 32.1914 16.88C31.818 16.4747 31.5247 16.0107 31.3114 15.488C31.1087 14.9653 31.0074 14.4107 31.0074 13.824C31.0074 13.0347 31.1887 12.3147 31.5514 11.664C31.914 11.0133 32.4154 10.4907 33.0554 10.096C33.706 9.70133 34.4474 9.504 35.2794 9.504C36.122 9.504 36.8527 9.70667 37.4714 10.112C38.1007 10.5067 38.586 11.0293 38.9274 11.68C39.2794 12.32 39.4554 13.0133 39.4554 13.76C39.4554 13.8667 39.45 13.9733 39.4394 14.08C39.4394 14.176 39.434 14.2507 39.4234 14.304H32.4954C32.538 14.848 32.6874 15.3333 32.9434 15.76C33.21 16.176 33.5514 16.5067 33.9674 16.752C34.3834 16.9867 34.8314 17.104 35.3114 17.104C35.8234 17.104 36.3034 16.976 36.7514 16.72C37.21 16.464 37.5247 16.128 37.6954 15.712L38.9114 16.048C38.73 16.4533 38.458 16.816 38.0954 17.136C37.7434 17.456 37.322 17.7067 36.8314 17.888C36.3514 18.0693 35.8287 18.16 35.2634 18.16ZM32.4474 13.328H38.1434C38.1007 12.784 37.946 12.304 37.6794 11.888C37.4127 11.472 37.0714 11.1467 36.6554 10.912C36.2394 10.6773 35.7807 10.56 35.2794 10.56C34.7887 10.56 34.3354 10.6773 33.9194 10.912C33.5034 11.1467 33.162 11.472 32.8954 11.888C32.6394 12.304 32.49 12.784 32.4474 13.328ZM44.7405 18.16C44.1112 18.16 43.5352 18.048 43.0125 17.824C42.5005 17.5893 42.0525 17.2693 41.6685 16.864C41.2952 16.4587 41.0018 15.9947 40.7885 15.472C40.5858 14.9493 40.4845 14.3947 40.4845 13.808C40.4845 13.0187 40.6605 12.2987 41.0125 11.648C41.3645 10.9973 41.8605 10.48 42.5005 10.096C43.1405 9.70133 43.8818 9.504 44.7245 9.504C45.5458 9.504 46.2605 9.69067 46.8685 10.064C47.4872 10.4267 47.9458 10.9173 48.2445 11.536L46.8685 11.968C46.6552 11.5733 46.3565 11.2693 45.9725 11.056C45.5885 10.832 45.1618 10.72 44.6925 10.72C44.1805 10.72 43.7112 10.8533 43.2845 11.12C42.8685 11.3867 42.5378 11.7547 42.2925 12.224C42.0472 12.6827 41.9245 13.2107 41.9245 13.808C41.9245 14.3947 42.0472 14.928 42.2925 15.408C42.5485 15.8773 42.8845 16.2507 43.3005 16.528C43.7272 16.8053 44.1965 16.944 44.7085 16.944C45.0392 16.944 45.3538 16.8853 45.6525 16.768C45.9618 16.6507 46.2285 16.496 46.4525 16.304C46.6872 16.1013 46.8472 15.8827 46.9325 15.648L48.3085 16.064C48.1378 16.4693 47.8765 16.832 47.5245 17.152C47.1832 17.4613 46.7725 17.7067 46.2925 17.888C45.8232 18.0693 45.3058 18.16 44.7405 18.16ZM51.9599 18V10.896H49.0799V9.648H56.2479V10.896H53.3679V18H51.9599ZM57.6703 18V9.664H59.0783V16.112L63.7503 9.648H65.0303V18H63.6223V11.68L59.0143 18H57.6703ZM73.88 19.968V18H67.288V9.648H68.696V16.768H72.568V9.648H73.976V16.768H75.128V19.968H73.88ZM76.7026 18V9.664H78.1106V16.112L82.7826 9.648H84.0626V18H82.6546V11.68L78.0466 18H76.7026ZM89.9844 18.16C89.355 18.16 88.7844 18.048 88.2724 17.824C87.7604 17.5893 87.3177 17.2747 86.9444 16.88C86.571 16.4747 86.283 16.0107 86.0804 15.488C85.8777 14.9653 85.7764 14.416 85.7764 13.84C85.7764 13.2533 85.8777 12.6987 86.0804 12.176C86.283 11.6533 86.571 11.1947 86.9444 10.8C87.3177 10.3947 87.7604 10.08 88.2724 9.856C88.795 9.62133 89.3657 9.504 89.9844 9.504C90.6137 9.504 91.1844 9.62133 91.6964 9.856C92.2084 10.08 92.651 10.3947 93.0244 10.8C93.4084 11.1947 93.7017 11.6533 93.9044 12.176C94.107 12.6987 94.2084 13.2533 94.2084 13.84C94.2084 14.416 94.107 14.9653 93.9044 15.488C93.7017 16.0107 93.4137 16.4747 93.0404 16.88C92.667 17.2747 92.219 17.5893 91.6964 17.824C91.1844 18.048 90.6137 18.16 89.9844 18.16ZM87.2164 13.856C87.2164 14.432 87.339 14.9547 87.5844 15.424C87.8404 15.8933 88.1764 16.2667 88.5924 16.544C89.0084 16.8107 89.4724 16.944 89.9844 16.944C90.4964 16.944 90.9604 16.8053 91.3764 16.528C91.803 16.2507 92.139 15.8773 92.3844 15.408C92.6404 14.928 92.7684 14.4 92.7684 13.824C92.7684 13.248 92.6404 12.7253 92.3844 12.256C92.139 11.7867 91.803 11.4133 91.3764 11.136C90.9604 10.8587 90.4964 10.72 89.9844 10.72C89.4724 10.72 89.0084 10.864 88.5924 11.152C88.1764 11.4293 87.8404 11.8027 87.5844 12.272C87.339 12.7413 87.2164 13.2693 87.2164 13.856ZM95.9225 18V9.648H97.3305V13.104H101.682V9.648H103.09V18H101.682V14.352H97.3305V18H95.9225ZM105.368 18V9.648H106.776V13.104H111.128V9.648H112.536V18H111.128V14.352H106.776V18H105.368ZM114.814 18V9.648H116.222V12.496H117.918C118.9 12.496 119.641 12.7467 120.142 13.248C120.654 13.7387 120.91 14.384 120.91 15.184C120.91 15.7173 120.798 16.1973 120.574 16.624C120.361 17.0507 120.041 17.3867 119.614 17.632C119.188 17.8773 118.654 18 118.014 18H114.814ZM116.222 16.896H117.822C118.217 16.896 118.532 16.8213 118.766 16.672C119.012 16.512 119.193 16.304 119.31 16.048C119.428 15.792 119.486 15.5147 119.486 15.216C119.486 14.928 119.433 14.6613 119.326 14.416C119.22 14.1707 119.044 13.9733 118.798 13.824C118.553 13.6747 118.217 13.6 117.79 13.6H116.222V16.896ZM122.35 18V9.664H123.758V18H122.35ZM126.041 18V9.664H127.449V16.112L132.121 9.648H133.401V18H131.993V11.68L127.385 18H126.041ZM129.737 8.704C128.969 8.704 128.388 8.52267 127.993 8.16C127.599 7.78667 127.401 7.328 127.401 6.784H128.393C128.393 7.08267 128.495 7.33333 128.697 7.536C128.911 7.728 129.257 7.824 129.737 7.824C130.207 7.824 130.537 7.73333 130.729 7.552C130.921 7.36 131.039 7.104 131.081 6.784H132.073C132.073 7.328 131.876 7.78667 131.481 8.16C131.087 8.52267 130.505 8.704 129.737 8.704ZM139.73 18V9.648H141.138V13.088H142.066L144.69 9.648H146.29L143.17 13.696L146.658 18H145.026L142.066 14.384H141.138V18H139.73ZM147.411 15.584C147.411 15.0507 147.56 14.592 147.859 14.208C148.168 13.8133 148.59 13.5093 149.123 13.296C149.656 13.0827 150.275 12.976 150.979 12.976C151.352 12.976 151.747 13.008 152.163 13.072C152.579 13.1253 152.947 13.2107 153.267 13.328V12.72C153.267 12.08 153.075 11.5787 152.691 11.216C152.307 10.8427 151.763 10.656 151.059 10.656C150.6 10.656 150.158 10.7413 149.731 10.912C149.315 11.072 148.872 11.3067 148.403 11.616L147.891 10.624C148.435 10.2507 148.979 9.97333 149.523 9.792C150.067 9.6 150.632 9.504 151.219 9.504C152.286 9.504 153.128 9.80267 153.747 10.4C154.366 10.9867 154.675 11.808 154.675 12.864V16.4C154.675 16.5707 154.707 16.6987 154.771 16.784C154.846 16.8587 154.963 16.9013 155.123 16.912V18C154.984 18.0213 154.862 18.0373 154.755 18.048C154.659 18.0587 154.579 18.064 154.515 18.064C154.184 18.064 153.934 17.9733 153.763 17.792C153.603 17.6107 153.512 17.4187 153.491 17.216L153.459 16.688C153.096 17.1573 152.622 17.52 152.035 17.776C151.448 18.032 150.867 18.16 150.291 18.16C149.736 18.16 149.24 18.048 148.803 17.824C148.366 17.5893 148.024 17.28 147.779 16.896C147.534 16.5013 147.411 16.064 147.411 15.584ZM152.851 16.176C152.979 16.0267 153.08 15.8773 153.155 15.728C153.23 15.568 153.267 15.4347 153.267 15.328V14.288C152.936 14.16 152.59 14.064 152.227 14C151.864 13.9253 151.507 13.888 151.155 13.888C150.44 13.888 149.859 14.032 149.411 14.32C148.974 14.5973 148.755 14.9813 148.755 15.472C148.755 15.7387 148.824 16 148.963 16.256C149.112 16.5013 149.326 16.704 149.603 16.864C149.891 17.024 150.243 17.104 150.659 17.104C151.096 17.104 151.512 17.0187 151.907 16.848C152.302 16.6667 152.616 16.4427 152.851 16.176ZM156.214 18.064V16.8C156.492 16.8 156.737 16.7307 156.95 16.592C157.174 16.4427 157.372 16.1973 157.542 15.856C157.713 15.504 157.846 15.024 157.942 14.416C158.049 13.7973 158.118 13.0133 158.15 12.064L158.246 9.648H163.926V18H162.518V10.896H159.494L159.462 12.192C159.42 13.3333 159.324 14.2827 159.174 15.04C159.025 15.7973 158.817 16.3947 158.55 16.832C158.284 17.2693 157.953 17.584 157.558 17.776C157.174 17.968 156.726 18.064 156.214 18.064ZM166.208 18V9.648H167.616V12.496H169.696C170.678 12.496 171.419 12.7467 171.92 13.248C172.432 13.7387 172.688 14.384 172.688 15.184C172.688 15.7173 172.576 16.1973 172.352 16.624C172.139 17.0507 171.819 17.3867 171.392 17.632C170.966 17.8773 170.432 18 169.792 18H166.208ZM167.616 16.896H169.6C169.995 16.896 170.31 16.8213 170.544 16.672C170.79 16.512 170.971 16.304 171.088 16.048C171.206 15.792 171.264 15.5147 171.264 15.216C171.264 14.928 171.211 14.6613 171.104 14.416C170.998 14.1707 170.822 13.9733 170.576 13.824C170.331 13.6747 169.995 13.6 169.568 13.6H167.616V16.896ZM174.232 18V9.648H175.64V13.088H176.568L179.192 9.648H180.792L177.672 13.696L181.16 18H179.528L176.568 14.384H175.64V18H174.232ZM183.609 21.504C183.428 21.504 183.241 21.4773 183.049 21.424C182.868 21.3707 182.681 21.2907 182.489 21.184L182.969 20.224C183.065 20.2773 183.156 20.3147 183.241 20.336C183.337 20.368 183.428 20.384 183.513 20.384C183.769 20.384 184.009 20.2613 184.233 20.016C184.468 19.7813 184.686 19.4187 184.889 18.928L185.289 17.92L181.625 9.648H183.113L185.929 16.576L188.473 9.648H189.865L185.961 19.36C185.769 19.84 185.55 20.2347 185.305 20.544C185.06 20.864 184.793 21.104 184.505 21.264C184.217 21.424 183.918 21.504 183.609 21.504ZM190.576 18.064V16.8C190.853 16.8 191.099 16.7307 191.312 16.592C191.536 16.4427 191.733 16.1973 191.904 15.856C192.075 15.504 192.208 15.024 192.304 14.416C192.411 13.7973 192.48 13.0133 192.512 12.064L192.608 9.648H198.288V18H196.88V10.896H193.856L193.824 12.192C193.781 13.3333 193.685 14.2827 193.536 15.04C193.387 15.7973 193.179 16.3947 192.912 16.832C192.645 17.2693 192.315 17.584 191.92 17.776C191.536 17.968 191.088 18.064 190.576 18.064ZM199.962 18L202.33 14.64C201.786 14.5333 201.349 14.2773 201.018 13.872C200.687 13.456 200.522 12.9013 200.522 12.208C200.522 11.7067 200.639 11.264 200.874 10.88C201.109 10.496 201.434 10.192 201.85 9.968C202.277 9.744 202.773 9.632 203.338 9.632H206.762V18H205.354V14.864H203.722L201.514 18H199.962ZM203.434 13.824H205.354V10.736H203.594C203.093 10.736 202.693 10.88 202.394 11.168C202.095 11.4453 201.946 11.8027 201.946 12.24C201.946 12.6773 202.069 13.0507 202.314 13.36C202.57 13.6693 202.943 13.824 203.434 13.824ZM211.095 18V10.896H208.215V9.648H215.383V10.896H212.503V18H211.095ZM220.469 18.16C219.84 18.16 219.269 18.048 218.757 17.824C218.245 17.5893 217.803 17.2747 217.429 16.88C217.056 16.4747 216.768 16.0107 216.565 15.488C216.363 14.9653 216.261 14.416 216.261 13.84C216.261 13.2533 216.363 12.6987 216.565 12.176C216.768 11.6533 217.056 11.1947 217.429 10.8C217.803 10.3947 218.245 10.08 218.757 9.856C219.28 9.62133 219.851 9.504 220.469 9.504C221.099 9.504 221.669 9.62133 222.181 9.856C222.693 10.08 223.136 10.3947 223.509 10.8C223.893 11.1947 224.187 11.6533 224.389 12.176C224.592 12.6987 224.693 13.2533 224.693 13.84C224.693 14.416 224.592 14.9653 224.389 15.488C224.187 16.0107 223.899 16.4747 223.525 16.88C223.152 17.2747 222.704 17.5893 222.181 17.824C221.669 18.048 221.099 18.16 220.469 18.16ZM217.701 13.856C217.701 14.432 217.824 14.9547 218.069 15.424C218.325 15.8933 218.661 16.2667 219.077 16.544C219.493 16.8107 219.957 16.944 220.469 16.944C220.981 16.944 221.445 16.8053 221.861 16.528C222.288 16.2507 222.624 15.8773 222.869 15.408C223.125 14.928 223.253 14.4 223.253 13.824C223.253 13.248 223.125 12.7253 222.869 12.256C222.624 11.7867 222.288 11.4133 221.861 11.136C221.445 10.8587 220.981 10.72 220.469 10.72C219.957 10.72 219.493 10.864 219.077 11.152C218.661 11.4293 218.325 11.8027 218.069 12.272C217.824 12.7413 217.701 13.2693 217.701 13.856ZM230.92 18.16C230.237 18.16 229.629 17.9893 229.096 17.648C228.562 17.3067 228.141 16.8747 227.832 16.352V21.408H226.424V9.648H227.672V11.216C228.002 10.704 228.434 10.2933 228.968 9.984C229.501 9.664 230.082 9.504 230.712 9.504C231.288 9.504 231.816 9.62133 232.296 9.856C232.776 10.0907 233.192 10.4107 233.544 10.816C233.896 11.2213 234.168 11.6853 234.36 12.208C234.562 12.72 234.664 13.2587 234.664 13.824C234.664 14.6133 234.504 15.3387 234.184 16C233.874 16.6613 233.437 17.1893 232.872 17.584C232.306 17.968 231.656 18.16 230.92 18.16ZM230.488 16.944C230.904 16.944 231.277 16.8587 231.608 16.688C231.949 16.5067 232.237 16.272 232.472 15.984C232.717 15.6853 232.904 15.3493 233.032 14.976C233.16 14.6027 233.224 14.2187 233.224 13.824C233.224 13.408 233.149 13.0133 233 12.64C232.861 12.2667 232.658 11.936 232.392 11.648C232.136 11.36 231.832 11.136 231.48 10.976C231.138 10.8053 230.765 10.72 230.36 10.72C230.104 10.72 229.837 10.768 229.56 10.864C229.293 10.96 229.037 11.0987 228.792 11.28C228.546 11.4507 228.338 11.648 228.168 11.872C227.997 12.096 227.885 12.336 227.832 12.592V14.976C227.992 15.3387 228.205 15.6693 228.472 15.968C228.738 16.2667 229.048 16.5067 229.4 16.688C229.752 16.8587 230.114 16.944 230.488 16.944Z" fill="#D31B2C"/>
<path d="M0.592 31V26.832H3.08V27.32H1.136V31H0.592ZM6.01819 31.08C5.71952 31.08 5.44219 31.024 5.18619 30.912C4.93552 30.7947 4.71685 30.6373 4.53019 30.44C4.34885 30.2373 4.20752 30.008 4.10619 29.752C4.00485 29.4907 3.95419 29.216 3.95419 28.928C3.95419 28.6293 4.00485 28.352 4.10619 28.096C4.20752 27.8347 4.35152 27.6053 4.53819 27.408C4.72485 27.2053 4.94352 27.048 5.19419 26.936C5.45019 26.8187 5.72752 26.76 6.02619 26.76C6.32485 26.76 6.59952 26.8187 6.85019 26.936C7.10085 27.048 7.31952 27.2053 7.50619 27.408C7.69285 27.6053 7.83685 27.8347 7.93819 28.096C8.03952 28.352 8.09019 28.6293 8.09019 28.928C8.09019 29.216 8.03952 29.4907 7.93819 29.752C7.83685 30.008 7.69285 30.2373 7.50619 30.44C7.32485 30.6373 7.10619 30.7947 6.85019 30.912C6.59952 31.024 6.32219 31.08 6.01819 31.08ZM4.50619 28.936C4.50619 29.2453 4.57285 29.528 4.70619 29.784C4.84485 30.0347 5.02885 30.2347 5.25819 30.384C5.48752 30.528 5.74085 30.6 6.01819 30.6C6.29552 30.6 6.54885 30.5253 6.77819 30.376C7.00752 30.2267 7.19152 30.024 7.33019 29.768C7.46885 29.5067 7.53819 29.224 7.53819 28.92C7.53819 28.6107 7.46885 28.328 7.33019 28.072C7.19152 27.816 7.00752 27.6133 6.77819 27.464C6.54885 27.3147 6.29552 27.24 6.01819 27.24C5.74085 27.24 5.48752 27.3173 5.25819 27.472C5.03419 27.6267 4.85285 27.832 4.71419 28.088C4.57552 28.3387 4.50619 28.6213 4.50619 28.936ZM11.528 31.08C11.1813 31.08 10.8693 30.9893 10.592 30.808C10.32 30.6267 10.104 30.4027 9.944 30.136V32.704H9.4V26.832H9.888V27.64C10.0533 27.3787 10.2747 27.168 10.552 27.008C10.8293 26.8427 11.1253 26.76 11.44 26.76C11.728 26.76 11.992 26.8213 12.232 26.944C12.472 27.0613 12.68 27.2213 12.856 27.424C13.032 27.6267 13.168 27.8587 13.264 28.12C13.3653 28.376 13.416 28.6427 13.416 28.92C13.416 29.3093 13.336 29.6693 13.176 30C13.0213 30.3253 12.8027 30.5867 12.52 30.784C12.2373 30.9813 11.9067 31.08 11.528 31.08ZM11.376 30.6C11.6053 30.6 11.8107 30.5547 11.992 30.464C12.1733 30.368 12.328 30.24 12.456 30.08C12.5893 29.92 12.6907 29.7413 12.76 29.544C12.8293 29.3413 12.864 29.1333 12.864 28.92C12.864 28.696 12.824 28.4827 12.744 28.28C12.6693 28.0773 12.56 27.8987 12.416 27.744C12.272 27.5893 12.1067 27.4667 11.92 27.376C11.7333 27.2853 11.5307 27.24 11.312 27.24C11.1733 27.24 11.0293 27.2667 10.88 27.32C10.7307 27.3733 10.5867 27.4507 10.448 27.552C10.3147 27.648 10.2027 27.7573 10.112 27.88C10.0213 28.0027 9.96533 28.1333 9.944 28.272V29.552C10.0293 29.7493 10.144 29.928 10.288 30.088C10.432 30.2427 10.5973 30.368 10.784 30.464C10.976 30.5547 11.1733 30.6 11.376 30.6ZM16.5135 31.08C16.2148 31.08 15.9375 31.024 15.6815 30.912C15.4308 30.7947 15.2122 30.6373 15.0255 30.44C14.8442 30.2373 14.7028 30.008 14.6015 29.752C14.5002 29.4907 14.4495 29.216 14.4495 28.928C14.4495 28.6293 14.5002 28.352 14.6015 28.096C14.7028 27.8347 14.8468 27.6053 15.0335 27.408C15.2202 27.2053 15.4388 27.048 15.6895 26.936C15.9455 26.8187 16.2228 26.76 16.5215 26.76C16.8202 26.76 17.0948 26.8187 17.3455 26.936C17.5962 27.048 17.8148 27.2053 18.0015 27.408C18.1882 27.6053 18.3322 27.8347 18.4335 28.096C18.5348 28.352 18.5855 28.6293 18.5855 28.928C18.5855 29.216 18.5348 29.4907 18.4335 29.752C18.3322 30.008 18.1882 30.2373 18.0015 30.44C17.8202 30.6373 17.6015 30.7947 17.3455 30.912C17.0948 31.024 16.8175 31.08 16.5135 31.08ZM15.0015 28.936C15.0015 29.2453 15.0682 29.528 15.2015 29.784C15.3402 30.0347 15.5242 30.2347 15.7535 30.384C15.9828 30.528 16.2362 30.6 16.5135 30.6C16.7908 30.6 17.0442 30.5253 17.2735 30.376C17.5028 30.2267 17.6868 30.024 17.8255 29.768C17.9642 29.5067 18.0335 29.224 18.0335 28.92C18.0335 28.6107 17.9642 28.328 17.8255 28.072C17.6868 27.816 17.5028 27.6133 17.2735 27.464C17.0442 27.3147 16.7908 27.24 16.5135 27.24C16.2362 27.24 15.9828 27.3173 15.7535 27.472C15.5295 27.6267 15.3482 27.832 15.2095 28.088C15.0708 28.3387 15.0015 28.6213 15.0015 28.936ZM19.4313 31.968V30.512H19.5033C19.626 30.512 19.738 30.4747 19.8393 30.4C19.9406 30.3253 20.0313 30.1947 20.1113 30.008C20.1913 29.8213 20.2553 29.5653 20.3033 29.24C20.3513 28.9093 20.3833 28.4933 20.3993 27.992L20.4393 26.832H23.1513V30.512H23.7113V31.968H23.2233V31H19.9113V31.968H19.4313ZM20.3273 30.512H22.6073V27.32H20.9273L20.9033 28.04C20.8873 28.536 20.8526 28.952 20.7993 29.288C20.7513 29.6187 20.6873 29.8827 20.6073 30.08C20.5326 30.272 20.4393 30.416 20.3273 30.512ZM24.5999 29.8C24.5999 29.5387 24.6746 29.3147 24.8239 29.128C24.9733 28.936 25.1786 28.7893 25.4399 28.688C25.7066 28.5813 26.0133 28.528 26.3599 28.528C26.5626 28.528 26.7733 28.544 26.9919 28.576C27.2106 28.608 27.4053 28.656 27.5759 28.72V28.368C27.5759 28.016 27.4719 27.736 27.2639 27.528C27.0559 27.32 26.7679 27.216 26.3999 27.216C26.1759 27.216 25.9546 27.2587 25.7359 27.344C25.5226 27.424 25.2986 27.544 25.0639 27.704L24.8559 27.32C25.1279 27.1333 25.3946 26.9947 25.6559 26.904C25.9173 26.808 26.1839 26.76 26.4559 26.76C26.9679 26.76 27.3733 26.9067 27.6719 27.2C27.9706 27.4933 28.1199 27.8987 28.1199 28.416V30.344C28.1199 30.4187 28.1359 30.4747 28.1679 30.512C28.1999 30.544 28.2506 30.5627 28.3199 30.568V31C28.2613 31.0053 28.2106 31.0107 28.1679 31.016C28.1253 31.0213 28.0933 31.0213 28.0719 31.016C27.9386 31.0107 27.8373 30.968 27.7679 30.888C27.6986 30.808 27.6613 30.7227 27.6559 30.632L27.6479 30.328C27.4613 30.568 27.2186 30.7547 26.9199 30.888C26.6213 31.016 26.3173 31.08 26.0079 31.08C25.7413 31.08 25.4986 31.024 25.2799 30.912C25.0666 30.7947 24.8986 30.64 24.7759 30.448C24.6586 30.2507 24.5999 30.0347 24.5999 29.8ZM27.3919 30.12C27.4506 30.0453 27.4959 29.9733 27.5279 29.904C27.5599 29.8347 27.5759 29.7733 27.5759 29.72V29.112C27.3946 29.0427 27.2053 28.9893 27.0079 28.952C26.8159 28.9147 26.6213 28.896 26.4239 28.896C26.0346 28.896 25.7199 28.9733 25.4799 29.128C25.2399 29.2827 25.1199 29.4933 25.1199 29.76C25.1199 29.9147 25.1599 30.0613 25.2399 30.2C25.3199 30.3333 25.4373 30.4453 25.5919 30.536C25.7466 30.6213 25.9279 30.664 26.1359 30.664C26.3973 30.664 26.6399 30.6133 26.8639 30.512C27.0933 30.4107 27.2693 30.28 27.3919 30.12ZM37.2784 31V26.376L35.2224 29.968H34.8704L32.8064 26.376V31H32.2464V25.32H32.8224L35.0384 29.208L37.2704 25.32H37.8384V31H37.2784ZM41.2635 31.08C40.9648 31.08 40.6875 31.024 40.4315 30.912C40.1808 30.7947 39.9622 30.6373 39.7755 30.44C39.5942 30.2373 39.4528 30.008 39.3515 29.752C39.2502 29.4907 39.1995 29.216 39.1995 28.928C39.1995 28.6293 39.2502 28.352 39.3515 28.096C39.4528 27.8347 39.5968 27.6053 39.7835 27.408C39.9702 27.2053 40.1888 27.048 40.4395 26.936C40.6955 26.8187 40.9728 26.76 41.2715 26.76C41.5702 26.76 41.8448 26.8187 42.0955 26.936C42.3462 27.048 42.5648 27.2053 42.7515 27.408C42.9382 27.6053 43.0822 27.8347 43.1835 28.096C43.2848 28.352 43.3355 28.6293 43.3355 28.928C43.3355 29.216 43.2848 29.4907 43.1835 29.752C43.0822 30.008 42.9382 30.2373 42.7515 30.44C42.5702 30.6373 42.3515 30.7947 42.0955 30.912C41.8448 31.024 41.5675 31.08 41.2635 31.08ZM39.7515 28.936C39.7515 29.2453 39.8182 29.528 39.9515 29.784C40.0902 30.0347 40.2742 30.2347 40.5035 30.384C40.7328 30.528 40.9862 30.6 41.2635 30.6C41.5408 30.6 41.7942 30.5253 42.0235 30.376C42.2528 30.2267 42.4368 30.024 42.5755 29.768C42.7142 29.5067 42.7835 29.224 42.7835 28.92C42.7835 28.6107 42.7142 28.328 42.5755 28.072C42.4368 27.816 42.2528 27.6133 42.0235 27.464C41.7942 27.3147 41.5408 27.24 41.2635 27.24C40.9862 27.24 40.7328 27.3173 40.5035 27.472C40.2795 27.6267 40.0982 27.832 39.9595 28.088C39.8208 28.3387 39.7515 28.6213 39.7515 28.936ZM46.4533 31.08C46.1493 31.08 45.8693 31.024 45.6133 30.912C45.3626 30.7947 45.1413 30.6347 44.9493 30.432C44.7626 30.2293 44.616 29.9973 44.5093 29.736C44.408 29.4747 44.3573 29.1973 44.3573 28.904C44.3573 28.5093 44.4453 28.1493 44.6213 27.824C44.7973 27.4987 45.0426 27.24 45.3573 27.048C45.672 26.856 46.0346 26.76 46.4453 26.76C46.8346 26.76 47.1786 26.8507 47.4773 27.032C47.776 27.208 47.9973 27.448 48.1413 27.752L47.6133 27.92C47.496 27.7067 47.3306 27.5413 47.1173 27.424C46.9093 27.3013 46.6773 27.24 46.4213 27.24C46.144 27.24 45.8906 27.312 45.6613 27.456C45.432 27.6 45.248 27.7973 45.1093 28.048C44.976 28.2987 44.9093 28.584 44.9093 28.904C44.9093 29.2187 44.9786 29.504 45.1173 29.76C45.256 30.016 45.44 30.2213 45.6693 30.376C45.8986 30.5253 46.152 30.6 46.4293 30.6C46.6106 30.6 46.784 30.568 46.9493 30.504C47.12 30.44 47.2666 30.3547 47.3893 30.248C47.5173 30.136 47.6026 30.016 47.6453 29.888L48.1813 30.048C48.1066 30.2453 47.9813 30.424 47.8053 30.584C47.6346 30.7387 47.432 30.8613 47.1973 30.952C46.968 31.0373 46.72 31.08 46.4533 31.08ZM49.4279 31V26.832H49.9719V28.616H50.5959L51.9959 26.832H52.6199L51.0279 28.856L52.8199 31H52.1799L50.5959 29.12H49.9719V31H49.4279ZM53.9842 31V26.832H56.0642C56.2989 26.832 56.4962 26.8827 56.6562 26.984C56.8162 27.08 56.9362 27.2053 57.0162 27.36C57.1015 27.5147 57.1442 27.68 57.1442 27.856C57.1442 28.08 57.0909 28.2827 56.9842 28.464C56.8775 28.64 56.7229 28.7733 56.5202 28.864C56.7602 28.9333 56.9549 29.0587 57.1042 29.24C57.2535 29.4213 57.3282 29.64 57.3282 29.896C57.3282 30.12 57.2722 30.3147 57.1602 30.48C57.0535 30.6453 56.9042 30.7733 56.7122 30.864C56.5255 30.9547 56.3095 31 56.0642 31H53.9842ZM54.5042 30.608H56.0482C56.1869 30.608 56.3122 30.5733 56.4242 30.504C56.5415 30.4293 56.6322 30.3333 56.6962 30.216C56.7655 30.0987 56.8002 29.976 56.8002 29.848C56.8002 29.7093 56.7682 29.584 56.7042 29.472C56.6402 29.3547 56.5549 29.2613 56.4482 29.192C56.3415 29.1227 56.2189 29.088 56.0802 29.088H54.5042V30.608ZM54.5042 28.712H55.9202C56.0589 28.712 56.1815 28.6747 56.2882 28.6C56.3949 28.5253 56.4775 28.4293 56.5362 28.312C56.5949 28.1947 56.6242 28.072 56.6242 27.944C56.6242 27.752 56.5602 27.584 56.4322 27.44C56.3095 27.296 56.1495 27.224 55.9522 27.224H54.5042V28.712ZM58.6654 31V26.832H59.2094V28.304H60.1534C60.6281 28.304 60.9854 28.4267 61.2254 28.672C61.4708 28.912 61.5934 29.2293 61.5934 29.624C61.5934 29.88 61.5401 30.112 61.4334 30.32C61.3268 30.528 61.1694 30.6933 60.9614 30.816C60.7588 30.9387 60.5028 31 60.1934 31H58.6654ZM59.2094 30.568H60.1214C60.3401 30.568 60.5161 30.5253 60.6494 30.44C60.7828 30.3493 60.8814 30.2347 60.9454 30.096C61.0094 29.952 61.0414 29.7973 61.0414 29.632C61.0414 29.472 61.0121 29.3253 60.9534 29.192C60.9001 29.0533 60.8041 28.944 60.6654 28.864C60.5321 28.7787 60.3454 28.736 60.1054 28.736H59.2094V30.568ZM62.3534 31V26.84H62.8974V31H62.3534Z" fill="#5F6368"/>
</svg>
