<svg width="10" height="14" viewBox="0 0 10 14" fill="none" xmlns="http://www.w3.org/2000/svg">
<path d="M4.99967 0.333008C2.41967 0.333008 0.333008 2.41967 0.333008 4.99967C0.333008 8.49967 4.99967 13.6663 4.99967 13.6663C4.99967 13.6663 9.66634 8.49967 9.66634 4.99967C9.66634 2.41967 7.57967 0.333008 4.99967 0.333008ZM1.66634 4.99967C1.66634 3.15967 3.15967 1.66634 4.99967 1.66634C6.83967 1.66634 8.33301 3.15967 8.33301 4.99967C8.33301 6.91967 6.41301 9.79301 4.99967 11.5863C3.61301 9.80634 1.66634 6.89967 1.66634 4.99967Z" fill="#3A6CAB"/>
<path d="M4.99967 6.66634C5.92015 6.66634 6.66634 5.92015 6.66634 4.99967C6.66634 4.0792 5.92015 3.33301 4.99967 3.33301C4.0792 3.33301 3.33301 4.0792 3.33301 4.99967C3.33301 5.92015 4.0792 6.66634 4.99967 6.66634Z" fill="#3A6CAB"/>
</svg>
