<svg width="14" height="22" viewBox="0 0 14 22" fill="none" xmlns="http://www.w3.org/2000/svg">
<path d="M7.5 4.25C8.6 4.25 9.5 3.35 9.5 2.25C9.5 1.15 8.6 0.25 7.5 0.25C6.4 0.25 5.5 1.15 5.5 2.25C5.5 3.35 6.4 4.25 7.5 4.25ZM14 11.25V21.75H13V11.25C13 10.97 12.78 10.75 12.5 10.75C12.22 10.75 12 10.97 12 11.25V12.25H11V11.56C9.54 11.18 8.3 10.27 7.49 9.04C7.18 9.91 7 10.82 7 11.75C7 11.98 7.02 12.21 7.03 12.44L9 15.25V21.75H7V16.75L5.22 14.21L5 17.75L2 21.75L0.4 20.55L3 17.08V11.75C3 10.6 3.18 9.46 3.5 8.36L2 9.21V12.75H0V8.05L5.4 4.98V4.99C5.99 4.68 6.72 4.66 7.34 5.02C7.7 5.23 7.97 5.53 8.14 5.87L8.93 7.54C9.58 8.85 10.94 9.75 12.5 9.75C13.33 9.75 14 10.42 14 11.25Z" fill="#8E9397"/>
</svg>
