<svg width="16" height="24" viewBox="0 0 16 24" fill="none" xmlns="http://www.w3.org/2000/svg">
<path d="M8 0.754883C3.59 0.754883 0 4.34488 0 8.75488C0 14.3249 6.96 22.0949 7.26 22.4249L8 23.2449L8.74 22.4249C9.04 22.0949 16 14.3249 16 8.75488C16 4.34488 12.41 0.754883 8 0.754883ZM8 20.2249C5.82 17.6149 2 12.2949 2 8.75488C2 5.44488 4.69 2.75488 8 2.75488C11.31 2.75488 14 5.44488 14 8.75488C14 12.5849 9.75 18.1149 8 20.2249ZM6.47 10.9249L4.71 9.15488L3.29 10.5749L6.47 13.7549L12.48 7.74488L11.07 6.32488L6.47 10.9249Z" fill="#8E9397"/>
</svg>
