<svg width="22" height="20" viewBox="0 0 22 20" fill="none" xmlns="http://www.w3.org/2000/svg">
<path d="M10 11H4V16H2V9.03L7 5.46L12 9.03V10.11C12.57 9.52 13.25 9.04 14 8.69V8L7 3L0 8V18H6V13H8V18H10.68C10.25 17.09 10 16.08 10 15V11Z" fill="#8E9397"/>
<path d="M18 4H16V6H18V4Z" fill="#8E9397"/>
<path d="M22 10.11V0H9V1.97L11 3.4V2H20V8.68C20.75 9.04 21.43 9.52 22 10.11Z" fill="#8E9397"/>
<path d="M22 15C22 12.24 19.76 10 17 10C14.24 10 12 12.24 12 15C12 17.76 14.24 20 17 20C19.76 20 22 17.76 22 15ZM16.5 18V15.5H14V14.5H16.5V12H17.5V14.5H20V15.5H17.5V18H16.5Z" fill="#8E9397"/>
</svg>
