<svg width="136" height="168" viewBox="0 0 136 168" fill="none" xmlns="http://www.w3.org/2000/svg">
<path fill-rule="evenodd" clip-rule="evenodd" d="M0.0853967 66.5546L0.170488 132.797L0.878741 135.299C3.70893 145.301 11.0123 152.445 21.2607 155.237C23.3698 155.812 24.9102 155.907 35.2064 156.101C46.2562 156.31 46.9169 156.356 49.7762 157.118C53.6672 158.155 56.8684 159.502 59.9436 161.398C62.6327 163.056 67.2716 166.862 67.2716 167.41C67.2716 167.596 68.1885 166.891 69.3094 165.843C72.8823 162.501 77.2431 159.853 81.9728 158.154C86.6212 156.485 87.642 156.369 99.9625 156.115C113.289 155.84 114.257 155.687 119.671 152.987C125.298 150.18 129.336 146.146 132.053 140.618C134.932 134.76 134.674 139.933 134.769 86.1066L134.853 38.478H129.065H123.277L123.194 85.4809L123.112 132.484L122.41 134.218C120.948 137.829 117.158 141.38 113.051 142.987C111.319 143.665 110.651 143.714 100.119 143.932C88.3211 144.177 85.7647 144.44 80.5576 145.945C77.0226 146.966 72.6752 148.861 69.804 150.631L67.5845 151.999L65.3649 150.631C62.4922 148.86 58.146 146.966 54.606 145.943C49.1884 144.378 47.1387 144.164 35.3628 143.933C25.0756 143.73 24.1228 143.665 22.4328 143.041C17.44 141.198 13.9598 137.674 12.5148 132.998C11.9132 131.052 11.9004 129.766 11.9004 71.7617V12.5129H55.0712H98.242V6.41272V0.3125H49.1211H0L0.0853967 66.5546ZM104.499 6.40521V12.4979L109.734 12.5836L114.969 12.6694L91.8245 31.4055C79.0945 41.7101 68.4438 50.3446 68.156 50.593C67.6843 51 66.1126 49.8172 52.2688 38.6388C43.819 31.8153 36.7787 26.2778 36.6241 26.3332C36.4696 26.3886 32.2511 29.7374 27.2501 33.7752L18.1571 41.1164V48.7307C18.1571 56.0754 18.1774 56.3303 18.7352 55.9362C19.0533 55.7112 23.1464 52.4303 27.8308 48.645C32.5154 44.8597 36.5378 41.7627 36.7696 41.7627C37.0014 41.7627 44.0414 47.2923 52.414 54.0504L67.637 66.3381L72.8507 62.1237C75.7181 59.8056 88.2001 49.6848 100.588 39.6336C112.976 29.5823 123.218 21.4177 123.347 21.4903C123.476 21.5625 123.581 23.9363 123.581 26.7652V31.9085H129.369H135.156V16.1105V0.3125H119.827H104.499V6.40521ZM30.9832 94.4748V122.317H36.7705H42.5579V94.4748V66.6328H36.7705H30.9832V94.4748ZM92.611 94.4748V122.317H98.3984H104.186V94.4748V66.6328H98.3984H92.611V94.4748ZM61.6407 107.301V135.143H67.5845H73.5283V107.301V79.4589H67.5845H61.6407V107.301Z" fill="#D31B2C"/>
</svg>
