<svg width="14" height="16" viewBox="0 0 14 16" fill="none" xmlns="http://www.w3.org/2000/svg">
<path d="M12.25 2H9.115C8.8 1.13 7.975 0.5 7 0.5C6.025 0.5 5.2 1.13 4.885 2H1.75C0.925 2 0.25 2.675 0.25 3.5V14C0.25 14.825 0.925 15.5 1.75 15.5H12.25C13.075 15.5 13.75 14.825 13.75 14V3.5C13.75 2.675 13.075 2 12.25 2ZM7 1.8125C7.165 1.8125 7.3075 1.8875 7.4125 2C7.5025 2.0975 7.5625 2.2325 7.5625 2.375C7.5625 2.6825 7.3075 2.9375 7 2.9375C6.6925 2.9375 6.4375 2.6825 6.4375 2.375C6.4375 2.2325 6.4975 2.0975 6.5875 2C6.6925 1.8875 6.835 1.8125 7 1.8125ZM12.25 14H1.75V3.5H12.25V14ZM7 4.25C5.7625 4.25 4.75 5.2625 4.75 6.5C4.75 7.7375 5.7625 8.75 7 8.75C8.2375 8.75 9.25 7.7375 9.25 6.5C9.25 5.2625 8.2375 4.25 7 4.25ZM7 7.25C6.5875 7.25 6.25 6.9125 6.25 6.5C6.25 6.0875 6.5875 5.75 7 5.75C7.4125 5.75 7.75 6.0875 7.75 6.5C7.75 6.9125 7.4125 7.25 7 7.25ZM2.5 12.1025V13.25H11.5V12.1025C11.5 10.2275 8.5225 9.4175 7 9.4175C5.4775 9.4175 2.5 10.22 2.5 12.1025ZM4.2325 11.75C4.75 11.33 6.0175 10.91 7 10.91C7.9825 10.91 9.2575 11.33 9.7675 11.75H4.2325Z" fill="#8E9397"/>
</svg>
